<?xml version="1.0" encoding="UTF-8" standalone="no"?>
<!-- Created with Inkscape (http://www.inkscape.org/) -->

<svg
   xmlns:dc="http://purl.org/dc/elements/1.1/"
   xmlns:cc="http://creativecommons.org/ns#"
   xmlns:rdf="http://www.w3.org/1999/02/22-rdf-syntax-ns#"
   xmlns:svg="http://www.w3.org/2000/svg"
   xmlns="http://www.w3.org/2000/svg"
   xmlns:xlink="http://www.w3.org/1999/xlink"
   xmlns:sodipodi="http://sodipodi.sourceforge.net/DTD/sodipodi-0.dtd"
   xmlns:inkscape="http://www.inkscape.org/namespaces/inkscape"
   width="69.331902mm"
   height="15.010221mm"
   viewBox="0 0 69.331902 15.010221"
   version="1.1"
   id="svg3659"
   inkscape:version="0.92.5 (2060ec1f9f, 2020-04-08)"
   sodipodi:docname="logo_ecare.svg">
  <defs
     id="defs3653">
    <linearGradient
       inkscape:collect="always"
       xlink:href="#linearGradient3793"
       id="linearGradient3559"
       gradientUnits="userSpaceOnUse"
       gradientTransform="matrix(0.20755422,0,0,0.20755422,-41.517099,49.76751)"
       x1="-1915.4902"
       y1="-958.36621"
       x2="-1744.5195"
       y2="-870.36621" />
    <linearGradient
       inkscape:collect="always"
       id="linearGradient3793">
      <stop
         style="stop-color:#ff0008;stop-opacity:1;"
         offset="0"
         id="stop3789" />
      <stop
         style="stop-color:#ff4e00;stop-opacity:1"
         offset="1"
         id="stop3791" />
    </linearGradient>
    <linearGradient
       inkscape:collect="always"
       xlink:href="#linearGradient3793"
       id="linearGradient3561"
       gradientUnits="userSpaceOnUse"
       gradientTransform="matrix(0.7844569,0,0,0.7844569,-41.517099,49.76751)"
       x1="-538.42706"
       y1="-247.77707"
       x2="-526.12042"
       y2="-230.1144" />
  </defs>
  <sodipodi:namedview
     id="base"
     pagecolor="#ffffff"
     bordercolor="#666666"
     borderopacity="1.0"
     inkscape:pageopacity="0.0"
     inkscape:pageshadow="2"
     inkscape:zoom="0.35"
     inkscape:cx="1073.8781"
     inkscape:cy="-71.634226"
     inkscape:document-units="mm"
     inkscape:current-layer="layer1"
     showgrid="false"
     inkscape:window-width="1920"
     inkscape:window-height="968"
     inkscape:window-x="0"
     inkscape:window-y="27"
     inkscape:window-maximized="1" />
  <metadata
     id="metadata3656">
    <rdf:RDF>
      <cc:Work
         rdf:about="">
        <dc:format>image/svg+xml</dc:format>
        <dc:type
           rdf:resource="http://purl.org/dc/dcmitype/StillImage" />
        <dc:title></dc:title>
      </cc:Work>
    </rdf:RDF>
  </metadata>
  <g
     inkscape:label="Layer 1"
     inkscape:groupmode="layer"
     id="layer1"
     transform="translate(317.39214,-114.86989)">
    <g
       transform="translate(150.14284,262.89163)"
       id="g3579">
      <path
         inkscape:connector-curvature="0"
         id="path3527"
         style="font-style:normal;font-variant:normal;font-weight:normal;font-stretch:normal;font-size:medium;line-height:1.25;font-family:Harabara;-inkscape-font-specification:Harabara;letter-spacing:0px;word-spacing:0px;fill:#000000;fill-opacity:1;stroke:none;stroke-width:0.48955983"
         d="m -442.64476,-137.42055 h 1.91235 q -0.42072,1.60636 -1.60637,2.44779 -1.18566,0.87968 -2.98326,0.87968 -2.18007,0 -3.40397,-1.41513 -1.2239,-1.37689 -1.2239,-3.93943 0,-2.4478 1.18565,-3.82469 1.22391,-1.41513 3.40397,-1.41513 2.29482,0 3.55696,1.37688 1.2239,1.41514 1.2239,3.93944 0,0.15298 0,0.26772 0,0.11475 0,0.15299 0,0.19123 -0.0383,0.26773 h -6.61671 q 0.0383,1.18565 0.57371,1.75935 0.49721,0.61195 1.49163,0.61195 0.6502,0 1.10916,-0.26773 0.11474,-0.0383 0.19123,-0.11473 0.11474,-0.11475 0.22948,-0.22949 0.0383,-0.11474 0.26773,-0.30598 0.26772,-0.19122 0.72669,-0.19122 z m -4.58962,-2.98326 h 3.90118 q -0.0765,-1.03267 -0.53546,-1.52988 -0.49721,-0.53545 -1.41513,-0.53545 -0.84144,0 -1.37689,0.53545 -0.53545,0.53546 -0.5737,1.52988 z" />
      <path
         inkscape:connector-curvature="0"
         id="path3529"
         style="font-style:normal;font-variant:normal;font-weight:normal;font-stretch:normal;font-size:medium;line-height:1.25;font-family:Harabara;-inkscape-font-specification:Harabara;letter-spacing:0px;word-spacing:0px;fill:#000000;fill-opacity:1;stroke:none;stroke-width:0.48955983"
         d="m -439.31825,-138.30023 v -1.10916 q 0,-1.03267 1.03267,-1.03267 h 4.2454 v 2.14183 z" />
      <path
         inkscape:connector-curvature="0"
         style="font-style:normal;font-variant:normal;font-weight:normal;font-stretch:normal;font-size:medium;line-height:1.25;font-family:Harabara;-inkscape-font-specification:Harabara;letter-spacing:0px;word-spacing:0px;fill:url(#linearGradient3559);fill-opacity:1;stroke:none;stroke-width:0.48955983"
         d="m -419.00714,-144.68768 c -1.27491,0 -2.25624,0.29321 -2.94468,0.87966 -0.61195,0.50996 -0.96901,1.16025 -1.07102,1.95069 h 2.5624 c 0.12751,-0.28048 0.33165,-0.47162 0.61214,-0.57361 0.28047,-0.10199 0.59891,-0.15283 0.95587,-0.15283 0.33149,0 0.68854,0.0635 1.07102,0.19094 0.40797,0.10199 0.61212,0.34437 0.61212,0.72684 0,0.50996 -0.56122,0.8414 -1.68314,0.9944 -0.22947,0.0255 -0.43322,0.0637 -0.6117,0.11472 -0.1785,0.0255 -0.3314,0.0385 -0.4589,0.0385 -0.96891,0.15299 -1.77212,0.45882 -2.40959,0.91778 -0.61193,0.45896 -0.91817,1.22394 -0.91817,2.29485 0,1.14741 0.34445,1.97583 1.03292,2.48579 0.68843,0.48446 1.49164,0.72684 2.40957,0.72684 0.45895,0 0.98155,-0.0382 1.56799,-0.11472 0.61196,-0.051 1.1858,-0.21692 1.72125,-0.4974 0.50996,-0.25498 0.9435,-0.66289 1.30045,-1.22384 0.38248,-0.58645 0.57362,-1.38965 0.57362,-2.40957 v -3.48018 c 0,-0.91793 -0.36968,-1.63207 -1.10911,-2.14203 -0.71394,-0.48446 -1.78517,-0.72684 -3.21304,-0.72684 z m -9.46966,4.1e-4 c -1.45338,0 -2.58804,0.47135 -3.40397,1.41477 -0.79043,0.91793 -1.18533,2.1929 -1.18533,3.82475 0,1.70837 0.40791,3.02156 1.22383,3.93948 0.81593,0.94342 1.95059,1.41518 3.40397,1.41518 1.1984,0 2.19277,-0.29322 2.9832,-0.87967 0.79043,-0.56095 1.32604,-1.37677 1.60651,-2.44768 h -1.91257 c -0.30598,0 -0.53535,0.0635 -0.68833,0.19093 -0.15301,0.12749 -0.25509,0.22957 -0.30607,0.30607 -0.0765,0.0765 -0.15297,0.15294 -0.22945,0.22944 -0.051,0.051 -0.11484,0.0892 -0.19134,0.11472 -0.30597,0.17849 -0.67565,0.26796 -1.10911,0.26796 -0.66294,0 -1.15991,-0.20417 -1.4914,-0.61212 -0.45896,-0.48447 -0.68873,-1.31288 -0.68873,-2.48579 0,-1.1729 0.22977,-2.01434 0.68873,-2.5243 0.35697,-0.35697 0.81571,-0.5355 1.37667,-0.5355 0.61195,0 1.0837,0.17853 1.41518,0.5355 0.12748,0.12749 0.25519,0.31864 0.38267,0.57362 h 2.67714 c -0.20399,-0.73945 -0.53545,-1.38974 -0.99439,-1.95069 -0.84145,-0.91792 -2.02733,-1.37667 -3.55721,-1.37667 z m 25.4931,0 c -1.45341,0 -2.58806,0.47135 -3.40398,1.41477 -0.79044,0.91793 -1.18573,2.1929 -1.18573,3.82475 0,1.70837 0.4079,3.02156 1.22384,3.93948 0.81593,0.94342 1.9506,1.41518 3.40397,1.41518 1.1984,0 2.19275,-0.29322 2.98318,-0.87967 0.79042,-0.56095 1.32604,-1.37677 1.60651,-2.44768 h -1.91218 c -0.30595,0 -0.54836,0.0635 -0.72684,0.19093 -0.15296,0.12749 -0.24202,0.22957 -0.26755,0.30607 l -0.22985,0.22944 c -0.051,0.051 -0.11444,0.0892 -0.19092,0.11472 -0.30598,0.17849 -0.67566,0.26796 -1.10913,0.26796 -0.66296,0 -1.16032,-0.20417 -1.4918,-0.61212 -0.35693,-0.38248 -0.54809,-0.96892 -0.57359,-1.75935 h 6.61659 c 0.0255,-0.051 0.0381,-0.14006 0.0381,-0.26756 v -0.15322 -0.26756 c 0,-1.68286 -0.40791,-2.99605 -1.22385,-3.93947 -0.84142,-0.91792 -2.02693,-1.37667 -3.55679,-1.37667 z m -5.37736,0.22944 c -0.68846,0 -1.36397,0.0891 -2.02691,0.26756 -0.63744,0.17848 -1.19867,0.45909 -1.68313,0.84156 -0.50996,0.40797 -0.91786,0.95618 -1.22384,1.64462 -0.28049,0.66295 -0.42079,1.49137 -0.42079,2.48579 v 4.93387 h 2.67753 v -5.23953 c 0,-0.76493 0.17854,-1.32616 0.53551,-1.68313 0.35697,-0.35697 0.90518,-0.53551 1.64462,-0.53551 h 0.87967 v -2.71523 h -0.19134 z m 5.45396,1.9888 c 0.61195,0 1.0837,0.17853 1.41519,0.5355 0.30598,0.33148 0.4841,0.84146 0.53509,1.5299 h -3.90095 c 0.0255,-0.66294 0.21664,-1.17292 0.57359,-1.5299 0.35697,-0.35697 0.81613,-0.5355 1.37708,-0.5355 z m -14.26408,3.0598 v 0.95589 c 0,0.71393 -0.20375,1.27516 -0.61172,1.68313 -0.40795,0.40797 -0.9692,0.61172 -1.68312,0.61172 -0.43348,0 -0.76493,-0.10208 -0.99442,-0.30607 -0.22947,-0.22948 -0.34416,-0.5353 -0.34416,-0.91777 0,-0.28048 0.0895,-0.56109 0.26797,-0.84157 0.20399,-0.20398 0.53543,-0.36951 0.99439,-0.497 l 0.87966,-0.19134 c 0.63746,-0.15299 1.13443,-0.31851 1.4914,-0.49699 z"
         id="path3531" />
      <path
         id="path3533"
         d="m -460.1066,-148.02174 a 7.4007977,7.4007977 0 0 1 7.37353,7.38889 7.4007977,7.4007977 0 0 1 -1.17072,4.00291 c -0.24943,1.5267 0.68341,2.94929 1.30792,3.46325 -2.00937,-0.10758 -3.18066,-0.0614 -4.40121,-0.75497 0.005,-0.0553 0.008,-0.11133 0.008,-0.16813 0,-0.92278 -0.74284,-1.66562 -1.66563,-1.66562 h -0.0441 v -0.90719 h 0.58094 c 1.33204,0 2.41507,-1.02503 2.50853,-2.33245 0.32555,-0.14453 0.55176,-0.46966 0.55176,-0.85 v -0.62605 c 0,-0.3941 -0.24289,-0.72885 -0.58753,-0.86487 -0.21667,-1.17048 -1.23766,-2.05182 -2.47276,-2.05182 h -0.96387 c -0.11442,-0.13887 -0.28782,-0.22705 -0.48263,-0.22705 h -0.26006 v -0.74148 a 0.83496682,0.83496682 0 0 0 0.6029,-0.80266 0.83496682,0.83496682 0 0 0 -0.83185,-0.83358 0.83496682,0.83496682 0 0 0 -0.83808,0.82753 v 0.0177 a 0.83496682,0.83496682 0 0 0 0.56936,0.78035 v 0.7522 h -0.32606 c -0.19481,0 -0.36821,0.0882 -0.48263,0.22706 h -0.7764 c -1.21636,0 -2.22543,0.85463 -2.46273,1.9986 -0.44583,0.0694 -0.7852,0.45219 -0.7852,0.91808 v 0.62605 c 0,0.45157 0.31853,0.82606 0.74408,0.91187 0.12256,1.27779 1.19287,2.27058 2.50385,2.27058 h 0.48713 v 0.90962 c -0.89935,0.0264 -1.61585,0.75723 -1.61585,1.66319 0,0.0977 0.0101,0.19279 0.026,0.28582 a 7.4007977,7.4007977 0 0 1 -4.52474,-6.72709 l -3.3e-4,-0.15639 a 7.4007977,7.4007977 0 0 1 7.42777,-7.33429 z m 1.99636,6.03086 c 0.818,0 1.47656,0.65857 1.47656,1.47658 v 0.99394 c 0,0.81801 -0.65856,1.47657 -1.47656,1.47657 h -3.80349 c -0.81802,0 -1.47658,-0.65856 -1.47658,-1.47657 v -0.99394 c 0,-0.81801 0.65856,-1.47658 1.47658,-1.47658 z m -0.24037,0.94176 a 0.62484271,0.62484271 0 0 0 -0.62709,0.61931 v 0.0132 a 0.62484271,0.62484271 0 0 0 0.62916,0.61723 0.62484271,0.62484271 0 0 0 0.62053,-0.62587 0.62484271,0.62484271 0 0 0 -0.6226,-0.62382 z m -3.36199,0 a 0.62484271,0.62484271 0 0 0 -0.62708,0.61931 v 0.0132 a 0.62484271,0.62484271 0 0 0 0.62916,0.61723 0.62484271,0.62484271 0 0 0 0.62052,-0.62587 0.62484271,0.62484271 0 0 0 -0.6226,-0.62382 z m 2.51165,1.57905 h -1.77552 a 0.89026021,0.89026021 0 0 0 0.89338,0.83185 0.89026021,0.89026021 0 0 0 0.88214,-0.83185 z"
         style="opacity:1;vector-effect:none;fill:url(#linearGradient3561);fill-opacity:1;stroke:none;stroke-width:0.30571696;stroke-linecap:round;stroke-linejoin:round;stroke-miterlimit:4;stroke-dasharray:none;stroke-dashoffset:0;stroke-opacity:1;paint-order:normal"
         inkscape:connector-curvature="0" />
      <rect
         style="opacity:1;vector-effect:none;fill:#ff0008;fill-opacity:1;stroke:none;stroke-width:0.31962407;stroke-linecap:round;stroke-linejoin:round;stroke-miterlimit:4;stroke-dasharray:none;stroke-dashoffset:0;stroke-opacity:1;paint-order:normal"
         id="rect3535"
         width="5.2889609"
         height="3.6750503"
         x="-465.52585"
         y="-136.68657"
         ry="0.96479201"
         rx="0.96479201" />
      <g
         id="g3557"
         transform="matrix(0.16066163,0,0,0.16066163,-378.03836,-99.39856)"
         style="fill:#ffffff">
        <g
           id="g3543"
           style="font-style:normal;font-variant:normal;font-weight:normal;font-stretch:normal;font-size:11.59132957px;line-height:1.25;font-family:Harabara;-inkscape-font-specification:Harabara;letter-spacing:0px;word-spacing:0px;fill:#ffffff;fill-opacity:1;stroke:none;stroke-width:0.28978333"
           transform="matrix(1,0,0.2679492,1,-310.07302,-294.57902)"
           aria-label="CDC">
          <path
             id="path3537"
             style="font-style:normal;font-variant:normal;font-weight:normal;font-stretch:normal;font-family:'Infinite Justice';-inkscape-font-specification:'Infinite Justice';fill:#ffffff;fill-opacity:1;stroke-width:0.28978333"
             d="m -243.03991,75.325853 h -5.19573 q -1.7885,0 -1.78284,-1.414958 0,-0.367888 0.12451,-0.848974 l 0.96218,-3.577012 q 0.6056,-2.263931 2.86953,-2.263931 h 5.19572 l -0.4641,1.737567 h -2.86388 q -1.13196,0 -1.43759,1.131966 l -0.63391,2.365808 q -0.0623,0.237713 -0.0623,0.430147 0,0.701819 0.89425,0.701819 h 2.86387 z"
             inkscape:connector-curvature="0" />
          <path
             id="path3539"
             style="font-style:normal;font-variant:normal;font-weight:normal;font-stretch:normal;font-family:'Infinite Justice';-inkscape-font-specification:'Infinite Justice';fill:#ffffff;fill-opacity:1;stroke-width:0.28978333"
             d="m -233.18615,73.061921 q -0.6056,2.263932 -2.86953,2.263932 h -6.29373 l 1.70926,-6.367308 h 2.94312 l -2.47901,-1.737567 h 6.29373 q 1.78285,0 1.78285,1.403637 0,0.379209 -0.12452,0.860294 z m -3.29968,-0.605602 0.6339,-2.365808 q 0.0679,-0.243373 0.0623,-0.430147 0,-0.701819 -0.8886,-0.701819 h -0.49806 l -1.2395,4.62974 h 0.49806 q 1.13197,0 1.43194,-1.131966 z"
             inkscape:connector-curvature="0" />
          <path
             id="path3541"
             style="font-style:normal;font-variant:normal;font-weight:normal;font-stretch:normal;font-family:'Infinite Justice';-inkscape-font-specification:'Infinite Justice';fill:#ffffff;fill-opacity:1;stroke-width:0.28978333"
             d="m -225.65292,75.325853 h -5.19572 q -1.78851,0 -1.78285,-1.414958 0,-0.367888 0.12452,-0.848974 l 0.96217,-3.577012 q 0.6056,-2.263931 2.86953,-2.263931 h 5.19572 l -0.4641,1.737567 h -2.86387 q -1.13197,0 -1.4376,1.131966 l -0.6339,2.365808 q -0.0623,0.237713 -0.0623,0.430147 0,0.701819 0.89425,0.701819 h 2.86388 z"
             inkscape:connector-curvature="0" />
        </g>
        <g
           id="g3555"
           style="font-style:normal;font-variant:normal;font-weight:normal;font-stretch:normal;font-size:5.45419645px;line-height:1.25;font-family:Harabara;-inkscape-font-specification:Harabara;letter-spacing:0px;word-spacing:0px;fill:#ffffff;fill-opacity:1;stroke:none;stroke-width:0.13635494"
           transform="matrix(1.0097232,0,-0.00296284,0.99037042,-310.07302,-294.57902)"
           aria-label="UNSRI">
          <path
             id="path3545"
             style="font-style:normal;font-variant:normal;font-weight:normal;font-stretch:normal;font-family:'Tabarra Black';-inkscape-font-specification:'Tabarra Black, ';letter-spacing:1.7692976px;fill:#ffffff;fill-opacity:1;stroke-width:0.13635494"
             d="m -226.42238,77.791536 v 2.416209 q 0,0.136354 0.0164,0.283618 0.0164,0.147263 0.0764,0.27271 0.06,0.119992 0.18545,0.201805 0.12544,0.07636 0.34361,0.07636 0.22362,0 0.34907,-0.07636 0.1309,-0.08181 0.1909,-0.201805 0.0654,-0.125447 0.0763,-0.27271 0.0164,-0.147264 0.0164,-0.283618 v -2.416209 h 1.18901 v 2.459842 q 0,0.316344 -0.0709,0.64905 -0.0709,0.332705 -0.26726,0.605415 -0.19635,0.27271 -0.55087,0.447244 -0.35453,0.174535 -0.92722,0.174535 -0.5945,0 -0.95448,-0.174535 -0.35998,-0.174534 -0.55087,-0.441789 -0.1909,-0.27271 -0.25635,-0.605416 -0.06,-0.332706 -0.06,-0.654504 v -2.459842 z"
             inkscape:connector-curvature="0" />
          <path
             id="path3547"
             style="font-style:normal;font-variant:normal;font-weight:normal;font-stretch:normal;font-family:'Tabarra Black';-inkscape-font-specification:'Tabarra Black, ';letter-spacing:1.7692976px;fill:#ffffff;fill-opacity:1;stroke-width:0.13635494"
             d="m -220.57598,77.786081 1.31446,2.154408 v -2.154408 h 1.17265 v 4.221548 h -1.0363 l -1.51626,-2.399846 v 2.399846 h -1.15084 v -4.221548 z"
             inkscape:connector-curvature="0" />
          <path
             id="path3549"
             style="font-style:normal;font-variant:normal;font-weight:normal;font-stretch:normal;font-family:'Tabarra Black';-inkscape-font-specification:'Tabarra Black, ';letter-spacing:1.7692976px;fill:#ffffff;fill-opacity:1;stroke-width:0.13635494"
             d="m -212.31151,80.731347 q 0,0.349069 -0.1309,0.61087 -0.12544,0.261802 -0.35997,0.436336 -0.23453,0.174534 -0.56724,0.261802 -0.32725,0.08727 -0.73086,0.08727 -0.52906,0 -1.00903,-0.147264 -0.47997,-0.152717 -0.82358,-0.381793 l 0.55087,-0.894489 q 0.11999,0.08181 0.28362,0.158172 0.16363,0.07091 0.33816,0.125447 0.17999,0.04909 0.35452,0.08181 0.17999,0.02727 0.32726,0.02727 0.32179,0 0.44179,-0.0709 0.12544,-0.07636 0.12544,-0.23453 0,-0.06 -0.0382,-0.109084 -0.0327,-0.04909 -0.11999,-0.09272 -0.0818,-0.04363 -0.22362,-0.08181 -0.14181,-0.04363 -0.35998,-0.09272 -0.3927,-0.09272 -0.68177,-0.196351 -0.28908,-0.109084 -0.48543,-0.261801 -0.19089,-0.158172 -0.28907,-0.381794 -0.0927,-0.223622 -0.0927,-0.550874 0,-0.305435 0.11999,-0.556328 0.12545,-0.256347 0.34907,-0.436336 0.22362,-0.179988 0.53997,-0.278164 0.31634,-0.09817 0.70359,-0.09817 0.55632,0 0.96539,0.1309 0.41452,0.130901 0.76359,0.370886 l -0.55633,0.872671 q -0.29453,-0.201805 -0.5836,-0.283618 -0.28362,-0.08181 -0.61632,-0.08181 -0.27817,0 -0.3818,0.08727 -0.0982,0.08727 -0.0982,0.201805 0,0.06545 0.0327,0.114539 0.0327,0.04363 0.11454,0.08727 0.0818,0.03818 0.21817,0.08181 0.13635,0.03818 0.34361,0.08727 0.40907,0.09818 0.70905,0.218168 0.29998,0.114538 0.49088,0.278164 0.19089,0.158171 0.28361,0.381793 0.0927,0.218168 0.0927,0.529057 z"
             inkscape:connector-curvature="0" />
          <path
             id="path3551"
             style="font-style:normal;font-variant:normal;font-weight:normal;font-stretch:normal;font-family:'Tabarra Black';-inkscape-font-specification:'Tabarra Black, ';letter-spacing:1.7692976px;fill:#ffffff;fill-opacity:1;stroke-width:0.13635494"
             d="m -207.92658,79.14963 q 0,-0.239984 -0.15817,-0.359977 -0.15272,-0.125446 -0.37634,-0.125446 h -0.5236 v 1.014481 h 0.35452 q 0.11999,0 0.24544,-0.01636 0.12544,-0.01636 0.22907,-0.0709 0.10363,-0.05454 0.16363,-0.158171 0.0654,-0.10363 0.0654,-0.283619 z m -1.05266,1.265374 v 1.592625 h -1.18902 v -4.221548 h 2.19259 q 0.30544,0 0.54542,0.10363 0.24544,0.10363 0.41452,0.278164 0.16908,0.174534 0.25635,0.409065 0.0927,0.229076 0.0927,0.485423 0,0.37634 -0.11454,0.605416 -0.11454,0.229076 -0.25089,0.354523 -0.16363,0.141809 -0.36543,0.201805 l 0.94357,1.783522 h -1.33628 l -0.74177,-1.592625 z"
             inkscape:connector-curvature="0" />
          <path
             id="path3553"
             style="font-style:normal;font-variant:normal;font-weight:normal;font-stretch:normal;font-family:'Tabarra Black';-inkscape-font-specification:'Tabarra Black, ';letter-spacing:1.7692976px;fill:#ffffff;fill-opacity:1;stroke-width:0.13635494"
             d="m -204.55332,77.786081 h 1.18901 v 4.221548 h -1.18901 z"
             inkscape:connector-curvature="0" />
        </g>
      </g>
    </g>
  </g>
</svg>
