<?xml version="1.0" encoding="UTF-8" standalone="no"?>
<!-- Created with Inkscape (http://www.inkscape.org/) -->

<svg
   width="33.24979mm"
   height="11.757478mm"
   viewBox="0 0 33.24979 11.757478"
   version="1.1"
   id="svg53426"
   inkscape:version="1.1 (1:1.1+202105261517+ce6663b3b7)"
   sodipodi:docname="logosapa.svg"
   xmlns:inkscape="http://www.inkscape.org/namespaces/inkscape"
   xmlns:sodipodi="http://sodipodi.sourceforge.net/DTD/sodipodi-0.dtd"
   xmlns="http://www.w3.org/2000/svg"
   xmlns:svg="http://www.w3.org/2000/svg">
  <sodipodi:namedview
     id="namedview53428"
     pagecolor="#ffffff"
     bordercolor="#666666"
     borderopacity="1.0"
     inkscape:pageshadow="2"
     inkscape:pageopacity="0.0"
     inkscape:pagecheckerboard="0"
     inkscape:document-units="mm"
     showgrid="false"
     inkscape:zoom="0.71535494"
     inkscape:cx="340.39046"
     inkscape:cy="373.94024"
     inkscape:window-width="1920"
     inkscape:window-height="972"
     inkscape:window-x="0"
     inkscape:window-y="27"
     inkscape:window-maximized="1"
     inkscape:current-layer="layer1" />
  <defs
     id="defs53423" />
  <g
     inkscape:label="Layer 1"
     inkscape:groupmode="layer"
     id="layer1"
     transform="translate(-14.813459,-49.60071)">
    <path
       id="path53403"
       style="fill:#088940;fill-opacity:1;stroke:none;stroke-width:0.999997;stroke-linecap:square;stroke-opacity:0;paint-order:fill markers stroke"
       d="m 19.90344,49.60071 c -2.71343,0.61706 -4.89024,2.76016 -5.07738,5.18127 -0.10091,1.31149 0.40732,2.53221 1.41442,3.39736 -1.6213,1.28265 -1.53673,3.86888 -0.51873,3.00628 1.08836,-0.92223 2.92208,-1.68406 4.65216,-1.79197 3.18316,-0.24604 5.90266,-2.62128 6.11273,-5.33896 0.12759,-1.65235 -0.70129,-3.05734 -2.08044,-3.87341 0.69679,0.61499 0.0751,1.53778 -0.7211,1.14198 -0.78323,-0.35302 -1.40306,-0.55544 -1.85921,-0.60727 -0.67025,-0.0762 -1.06583,0.0717 -1.18663,0.44508 -0.0295,0.091 -0.0231,0.19068 0.0189,0.29916 0.0671,0.12075 0.15693,0.2158 0.26958,0.28516 l 0.36135,0.22521 0.291,0.17426 0.12178,0.0704 0.55402,0.34595 c 0.45989,0.27854 0.76229,0.58166 0.90706,0.90927 0.15704,0.31959 0.16177,0.70669 0.0144,1.16141 -0.23872,0.73665 -0.69592,1.2835 -1.37142,1.6405 -0.67255,0.3479 -1.4929,0.46698 -2.46103,0.35698 -0.78197,-0.0888 -1.57539,-0.3205 -2.38065,-0.69484 -0.99353,-0.49387 -0.26124,-2.03203 0.90523,-1.45221 0.59954,0.29441 1.15529,0.47068 1.66728,0.52884 0.39098,0.0443 0.71578,0.0244 0.97454,-0.0598 0.25879,-0.0837 0.41923,-0.22089 0.48112,-0.41188 0.059,-0.1819 -0.0182,-0.36042 -0.23202,-0.53551 L 20.37056,53.73333 19.8269,53.44529 c -0.12488,-0.0614 -0.2407,-0.12186 -0.347,-0.18102 -0.10334,-0.0683 -0.20524,-0.14096 -0.30562,-0.21843 -0.16307,-0.12226 -0.34612,-0.33174 -0.54923,-0.62827 -0.19722,-0.31472 -0.20447,-0.75389 -0.0217,-1.31773 0.21663,-0.6685 0.65006,-1.16813 1.30009,-1.49897 z"
       sodipodi:nodetypes="cccsccccsscccccccscsccscsccccccscc"
       inkscape:export-filename="/home/ridwanzal/Desktop/sapa.png"
       inkscape:export-xdpi="610.37012"
       inkscape:export-ydpi="610.37012" />
    <path
       id="path53405"
       style="font-size:7.07743px;line-height:26.25;font-family:Glasgow-DemiBold;-inkscape-font-specification:Glasgow-DemiBold;text-align:center;letter-spacing:0px;word-spacing:0px;text-anchor:middle;fill:#088940;stroke-width:0.264582"
       d="m 39.22346,51.81673 c -0.38333,0.002 -0.78394,0.20542 -0.78394,0.57049 v 6.76963 h 1.10175 c 0,0 0.36947,0.0127 0.36947,-0.38912 v -1.81748 c 0.4223,0.3065 0.83476,0.45993 1.23663,0.45993 0.57214,0 1.03487,-0.249 1.38907,-0.74621 0.35417,-0.50405 0.53173,-1.16797 0.53173,-1.99212 0,-0.83778 -0.18058,-1.50879 -0.54155,-2.0128 -0.36102,-0.50405 -0.84489,-0.75604 -1.45108,-0.75604 -0.18391,0 -0.37454,0.0342 -0.57206,0.10234 -0.19073,0.0613 -0.3884,0.16335 -0.59274,0.30644 -0.0243,-0.34092 -0.34907,-0.49657 -0.68728,-0.49506 z m -8.43619,0.0253 c -0.68112,0 -1.21931,0.14986 -1.61435,0.44958 -0.38825,0.29289 -0.58241,0.69125 -0.58241,1.19528 0,0.4223 0.10563,0.73917 0.31679,0.95033 0.21114,0.19759 0.3882,0.33385 0.53123,0.40875 0.0885,0.0476 0.17711,0.092 0.26562,0.1328 0.0885,0.0341 0.18412,0.0677 0.28628,0.10181 l 0.44958,0.1638 0.33694,0.16331 c 0.19066,0.10898 0.28628,0.23166 0.28628,0.36795 0,0.14306 -0.082,0.25522 -0.24545,0.33692 -0.16349,0.0818 -0.38833,0.12248 -0.6744,0.12248 -0.37462,0 -0.80666,-0.0815 -1.29707,-0.24495 h -5.3e-4 c -0.66008,-0.21672 -1.10474,0.82849 -0.30644,1.12397 0.6539,0.20426 1.26704,0.30644 1.83918,0.30644 0.70836,0 1.26013,-0.1534 1.6552,-0.45992 0.39505,-0.31332 0.59272,-0.74589 0.59272,-1.2976 0,-0.34054 -0.0921,-0.61971 -0.27596,-0.83767 -0.17708,-0.22476 -0.45976,-0.41891 -0.84801,-0.5824 l -0.47025,-0.20413 -0.10181,-0.0408 -0.24545,-0.10232 -0.30644,-0.13282 c -0.0954,-0.0408 -0.1804,-0.10226 -0.25527,-0.18396 -0.0545,-0.075 -0.0817,-0.14634 -0.0817,-0.21445 0,-0.27929 0.24492,-0.4191 0.73535,-0.4191 0.33375,0 0.81762,0.0956 1.45106,0.28628 0.76626,0.20532 1.09717,-0.80581 0.30644,-1.09347 -0.65387,-0.19759 -1.23632,-0.29609 -1.74718,-0.29609 z m 4.98369,0.0305 c -0.16348,0 -0.31991,0.008 -0.46974,0.0207 -0.14986,0.0138 -0.30678,0.0337 -0.47027,0.061 -0.32695,0.0613 -0.67752,0.14324 -1.05212,0.24545 -0.59695,0.15994 -0.54919,1.29233 0.34727,1.05214 0.50403,-0.17023 0.94012,-0.25527 1.30792,-0.25527 0.51085,0 0.80359,0.14986 0.87849,0.44958 l 0.0207,0.28578 v 0.37825 c -0.4087,-0.10906 -0.80052,-0.1638 -1.17512,-0.1638 -0.57216,0 -1.03187,0.16697 -1.37925,0.50075 -0.34739,0.33374 -0.52091,0.76279 -0.52091,1.28725 0,0.50403 0.15642,0.90942 0.46974,1.21594 0.31332,0.30652 0.7152,0.45993 1.2056,0.45993 0.50406,0 0.9673,-0.19063 1.3896,-0.57206 0.15888,0.75907 1.47121,0.54928 1.47121,0.0377 v -3.27681 c 0,-0.40185 -0.0307,-0.68808 -0.092,-0.85833 -0.0613,-0.17032 -0.22476,-0.3574 -0.4904,-0.56174 -0.26564,-0.20431 -0.74599,-0.30644 -1.44074,-0.30644 z m 10.26965,0 c -0.16346,0 -0.32041,0.008 -0.47025,0.0207 -0.14986,0.0138 -0.30628,0.0337 -0.46974,0.061 -0.32695,0.0613 -0.67805,0.14324 -1.05264,0.24545 -0.59696,0.15994 -0.54867,1.29233 0.34776,1.05214 0.50404,-0.17023 0.93962,-0.25527 1.30742,-0.25527 0.51085,0 0.80412,0.14986 0.87902,0.44958 l 0.0202,0.28578 v 0.37825 c -0.4087,-0.10906 -0.80052,-0.1638 -1.17514,-0.1638 -0.57214,0 -1.03185,0.16697 -1.37922,0.50075 -0.3474,0.33374 -0.52092,0.76279 -0.52092,1.28725 0,0.50403 0.15695,0.90942 0.47027,1.21594 0.31332,0.30652 0.71467,0.45993 1.20508,0.45993 0.50405,0 0.96729,-0.19063 1.38959,-0.57206 0.15888,0.75907 1.47121,0.54928 1.47121,0.0377 v -3.27681 c 0,-0.40185 -0.0302,-0.68808 -0.0915,-0.85833 -0.0613,-0.17032 -0.22477,-0.3574 -0.49041,-0.56174 -0.26564,-0.20431 -0.74599,-0.30644 -1.44073,-0.30644 z m -5.48598,1.28725 c 0.30652,0 0.54142,0.13279 0.70488,0.39843 0.17031,0.25882 0.25527,0.61998 0.25527,1.08313 0,0.97401 -0.31335,1.4609 -0.93999,1.4609 -0.18389,0 -0.40521,-0.0643 -0.66405,-0.19378 v -2.55437 c 0.23159,-0.12951 0.44638,-0.19431 0.64389,-0.19431 z m -4.71186,1.63504 0.49043,0.0408 v 1.25677 c -0.14986,0.0954 -0.27964,0.1597 -0.38862,0.19378 -0.10215,0.0278 -0.21783,0.0408 -0.34726,0.0408 -0.23159,0 -0.4222,-0.0643 -0.57206,-0.19378 -0.14306,-0.14304 -0.21447,-0.31356 -0.21447,-0.51107 3e-5,-0.25882 0.0951,-0.45951 0.28578,-0.60257 0.19071,-0.14986 0.43971,-0.22479 0.7462,-0.22479 z m 10.26914,0 0.49043,0.0408 v 1.25677 c -0.14986,0.0954 -0.27911,0.1597 -0.38809,0.19378 -0.10218,0.0278 -0.21786,0.0408 -0.34726,0.0408 -0.23159,0 -0.42273,-0.0643 -0.57259,-0.19378 -0.14306,-0.14304 -0.21444,-0.31356 -0.21444,-0.51107 -3e-5,-0.25882 0.0955,-0.45951 0.28628,-0.60257 0.19071,-0.14986 0.43918,-0.22479 0.74567,-0.22479 z"
       inkscape:export-filename="/home/ridwanzal/Desktop/sapa.png"
       inkscape:export-xdpi="610.37012"
       inkscape:export-ydpi="610.37012" />
  </g>
</svg>
